<svg width="12" height="13" viewBox="0 0 12 13" fill="none" xmlns="http://www.w3.org/2000/svg">
<path d="M1.00523 2.82163V6.63678C1.00523 8.02773 1.48658 9.29945 2.40917 10.2532C3.33176 11.207 4.57525 11.7634 5.93908 11.7634C7.30291 11.7634 8.5464 11.2468 9.46899 10.2532C10.3916 9.29945 10.8729 8.02773 10.8729 6.63678V2.78189L9.99046 2.38447V6.63678C9.99046 7.78928 9.58933 8.86229 8.8673 9.65712C8.10516 10.4519 7.06223 10.9288 5.93908 10.9288C4.81593 10.9288 3.773 10.4917 3.01086 9.65712C2.28884 8.86229 1.88771 7.78928 1.88771 6.63678V3.41775L4.0939 2.46396V6.67652C4.0939 7.86876 4.89615 8.74307 5.9792 8.74307C7.06224 8.74307 7.86449 7.86876 7.86449 6.67652V1.43068L7.06224 1.07301V6.59704C7.06224 7.39187 6.621 7.9085 5.9792 7.9085C5.29728 7.9085 4.89616 7.39187 4.89616 6.59704V1.1525L1.00523 2.82163ZM5.93908 12.4787C2.77018 12.4787 0.283203 9.93531 0.283203 6.63678V2.34473L5.53795 0.0397412V6.63678C5.53795 7.2329 5.81875 7.2329 5.89897 7.2329C5.9792 7.2329 6.25998 7.2329 6.25998 6.63678V0L8.46618 0.953789V6.63678C8.46618 8.22643 7.34302 9.41867 5.85886 9.41867C4.37469 9.41867 3.25154 8.22643 3.25154 6.63678V3.53697L2.56962 3.8549V6.63678C2.56962 8.66359 4.01367 10.1738 5.93908 10.1738C7.86449 10.1738 9.30854 8.66359 9.30854 6.63678V1.31146L11.595 2.30499V6.63678C11.595 9.89556 9.10798 12.4787 5.93908 12.4787Z" fill="white"/>
</svg>
