<svg width="17" height="30" viewBox="0 0 17 30" fill="none" xmlns="http://www.w3.org/2000/svg">
<path d="M15.9523 16.0349C16.2278 15.7602 16.35 15.4211 16.35 15.0622C16.35 14.7032 16.2278 14.3641 15.9523 14.0894C15.4059 13.5445 14.5497 13.5445 14.0032 14.0894L1.16014 26.8958C0.613287 27.4411 0.613287 28.296 1.16014 28.8413C1.7066 29.3862 2.56276 29.3862 3.10922 28.8413L15.9523 16.0349Z" fill="white" stroke="white" stroke-width="0.5"/>
<path d="M15.9523 15.9107C16.2278 15.636 16.35 15.2969 16.35 14.9379C16.35 14.5789 16.2278 14.2398 15.9523 13.9651L3.10922 1.15873C2.56276 0.61383 1.7066 0.61383 1.16014 1.15873C0.613286 1.70402 0.613286 2.55897 1.16014 3.10426L14.0032 15.9107C14.5497 16.4556 15.4059 16.4556 15.9523 15.9107Z" fill="white" stroke="white" stroke-width="0.5"/>
</svg>
