<svg xmlns="http://www.w3.org/2000/svg" width="84.344" height="102.84" viewBox="0 0 84.344 102.84">
  <defs>
    <style>
      .cls-1 {
        fill: red;
        fill-rule: evenodd;
      }
    </style>
  </defs>
  <path id="Forma_7" data-name="Forma 7" class="cls-1" d="M446.443,2952.52a0.907,0.907,0,0,1-.639-0.27,0.872,0.872,0,0,1-.265-0.63v-71.59a0.9,0.9,0,0,1,.9-0.89h82.514a0.9,0.9,0,0,1,.639.26,0.886,0.886,0,0,1,.265.63v71.59a0.869,0.869,0,0,1-.265.63,0.907,0.907,0,0,1-.639.27H446.443Zm0.9-1.8h80.707v-69.79H447.347v69.79Zm4.6-3.67a0.9,0.9,0,0,1-.639-0.26,0.907,0.907,0,0,1-.265-0.63V2885.5a0.9,0.9,0,0,1,.9-0.9h12.377a0.9,0.9,0,0,1,.639.26,0.913,0.913,0,0,1,.265.64v60.66a0.907,0.907,0,0,1-.265.63,0.9,0.9,0,0,1-.639.26H451.944Zm0.9-1.79h10.569v-58.87H452.848v58.87Zm26.6-53.4a0.907,0.907,0,0,1-.639-0.27,0.886,0.886,0,0,1-.265-0.63v-5.46a0.9,0.9,0,0,1,.9-0.9h5.5a0.9,0.9,0,0,1,.639.26,0.912,0.912,0,0,1,.264.64v5.46a0.889,0.889,0,0,1-.264.63,0.909,0.909,0,0,1-.639.27h-5.5Zm0.9-1.8h3.694v-3.67h-3.694v3.67Zm-10.53,1.8a0.907,0.907,0,0,1-.639-0.27,0.89,0.89,0,0,1-.265-0.63v-5.46a0.9,0.9,0,0,1,.9-0.9h5.5a0.9,0.9,0,0,1,.639.26,0.913,0.913,0,0,1,.265.64v5.46a0.89,0.89,0,0,1-.265.63,0.907,0.907,0,0,1-.639.27h-5.5Zm0.9-1.8h3.693v-3.67h-3.693v3.67Zm18.349,1.8a0.907,0.907,0,0,1-.639-0.27,0.889,0.889,0,0,1-.264-0.63v-5.46a0.9,0.9,0,0,1,.9-0.9h5.5a0.9,0.9,0,0,1,.639.26,0.909,0.909,0,0,1,.265.64v5.46a0.886,0.886,0,0,1-.265.63,0.907,0.907,0,0,1-.639.27h-5.5Zm0.9-1.8h3.694v-3.67h-3.694v3.67Zm8.723,1.8a0.907,0.907,0,0,1-.639-0.27,0.89,0.89,0,0,1-.265-0.63v-5.46a0.9,0.9,0,0,1,.9-0.9h5.5a0.9,0.9,0,0,1,.639.26,0.913,0.913,0,0,1,.265.64v5.46a0.89,0.89,0,0,1-.265.63,0.907,0.907,0,0,1-.639.27h-5.5Zm0.9-1.8H503.3v-3.67h-3.693v3.67Zm8.723,1.8a0.907,0.907,0,0,1-.639-0.27,0.886,0.886,0,0,1-.265-0.63v-5.46a0.9,0.9,0,0,1,.9-0.9h5.5a0.9,0.9,0,0,1,.639.26,0.912,0.912,0,0,1,.264.64v5.46a0.889,0.889,0,0,1-.264.63,0.907,0.907,0,0,1-.639.27h-5.5Zm0.9-1.8h3.694v-3.67h-3.694v3.67Zm8.723,1.8a0.907,0.907,0,0,1-.639-0.27,0.889,0.889,0,0,1-.264-0.63v-5.46a0.9,0.9,0,0,1,.9-0.9h5.5a0.9,0.9,0,0,1,.639.26,0.909,0.909,0,0,1,.265.64v5.46a0.886,0.886,0,0,1-.265.63,0.907,0.907,0,0,1-.639.27h-5.5Zm0.9-1.8h3.694v-3.67h-3.694v3.67Zm-49.942,7.26v-1.8h55.44v1.8h-55.44Zm34.381,49.73v-1.79h21.059v1.79H503.3Zm2.75-5.46v-1.79h18.309v1.79H506.048Zm-36.226,5.46a0.9,0.9,0,0,1-.639-0.26,0.907,0.907,0,0,1-.265-0.63v-44.28a0.9,0.9,0,0,1,.9-0.89H498.7a0.9,0.9,0,0,1,.639.26,0.907,0.907,0,0,1,.265.63v44.28a0.907,0.907,0,0,1-.265.63,0.9,0.9,0,0,1-.639.26h-28.88Zm0.9-1.79H497.8v-42.48H470.726v42.48Zm23.85-69.79a0.949,0.949,0,0,1-.465-0.13l-6.41-3.82-6.412,3.82a0.949,0.949,0,0,1-.465.13h0a0.9,0.9,0,0,1-.586-0.22,0.884,0.884,0,0,1-.253-1.01l2.528-6.28-5.079-5.05a0.893,0.893,0,0,1-.2-0.98,0.908,0.908,0,0,1,.835-0.55h6.264l2.524-6.27a0.909,0.909,0,0,1,1.678,0l2.524,6.27h6.264a0.907,0.907,0,0,1,.835.55,0.891,0.891,0,0,1-.2.98l-5.079,5.05,2.529,6.28a0.887,0.887,0,0,1-.253,1.01A0.907,0.907,0,0,1,494.576,2875.47Zm-6.872-5.9a0.946,0.946,0,0,1,.465.13l4.578,2.73-1.759-4.36a0.9,0.9,0,0,1,.182-0.95l3.976-3.94h-4.695a0.91,0.91,0,0,1-.84-0.57l-1.91-4.75-1.912,4.75a0.909,0.909,0,0,1-.839.57h-4.7l3.963,3.92a0.9,0.9,0,0,1,.2.97l-1.759,4.36,4.582-2.73A0.949,0.949,0,0,1,487.7,2869.57Zm24.443-8.26,2.332-2.32a4.015,4.015,0,0,0,1.2-2.86A5.813,5.813,0,0,1,517.4,2852l2.334-2.32,1.281,1.27-2.334,2.32a4.035,4.035,0,0,0-1.195,2.86,5.823,5.823,0,0,1-1.724,4.13l-2.333,2.32Zm-0.25,7.15a4.1,4.1,0,0,0-2.87-1.19h-0.02a5.9,5.9,0,0,1-4.153-1.71l-0.334-.33h0l-2-1.99,1.28-1.27,2.335,2.32a4.107,4.107,0,0,0,2.872,1.19h0.025a5.9,5.9,0,0,1,4.145,1.71l0.333,0.33h0l2,1.99-1.28,1.27Zm9.28-6.65v-1.8h1.807v1.8h-1.807Zm-12.377-5.47v-1.79h1.806v1.79H508.8Zm-1.375,19.12v-1.79h1.806v1.79h-1.806Zm13.752-5.46v-1.79h1.807V2870h-1.807Zm-61.537-9.74a5.806,5.806,0,0,1-1.724-4.13,4.012,4.012,0,0,0-1.2-2.86l-2.332-2.32,1.279-1.27L458,2852a5.815,5.815,0,0,1,1.724,4.13,4.056,4.056,0,0,0,1.2,2.87l2.331,2.31-1.28,1.27Zm0.247,9.25,2.333-2.32a5.9,5.9,0,0,1,4.145-1.71h0.017a4.12,4.12,0,0,0,2.885-1.19l2.331-2.32,1.28,1.27-2.334,2.32a5.9,5.9,0,0,1-4.149,1.71h-0.023a4.113,4.113,0,0,0-2.873,1.19l-0.155.16-2.178,2.16Zm-7.473-7.7v-1.8h1.806v1.8h-1.806Zm12.377-5.47v-1.79H466.6v1.79h-1.806Zm1.375,19.13v-1.8h1.806v1.8h-1.806ZM452.414,2870v-1.79h1.806V2870h-1.806Z" transform="translate(-445.531 -2849.69)"/>
</svg>
