<svg xmlns="http://www.w3.org/2000/svg" width="69" height="85" viewBox="0 0 69 85">
  <defs>
    <style>
      .cls-1 {
        fill: red;
        fill-rule: evenodd;
      }
    </style>
  </defs>
  <path id="Forma_1" data-name="Forma 1" class="cls-1" d="M502.1,2294.64H476.419V2292H502.1v2.64Zm0,5.28H476.419v-2.64H502.1v2.64ZM522,2377H453v-82.36h18.575v2.64H455.635v77.08h63.73v-77.08H503.429v-2.64H522V2377Zm-26.631-50.68-5.93-5.93,1.862-1.87,4.067,4.07,8.295-8.31,1.864,1.87Zm0,15.65-5.93-5.94,1.862-1.86,4.067,4.07,8.295-8.31,1.864,1.87Zm0,15.64-5.93-5.93,1.862-1.87,4.067,4.07,8.295-8.3,1.864,1.87Zm-22.4-34.48h5.916v-5.92h-5.916v5.92Zm8.552,2.64H470.337v-11.2h11.188v11.2Zm-8.552,13.01h5.916v-5.92h-5.916v5.92Zm8.552,2.64H470.337v-11.2h11.188v11.2Zm-8.552,13.01h5.916v-5.92h-5.916v5.92Zm8.552,2.64H470.337v-11.2h11.188v11.2Z" transform="translate(-453 -2292)"/>
</svg>
