<svg xmlns="http://www.w3.org/2000/svg" width="76" height="73" viewBox="0 0 76 73">
  <defs>
    <style>
      .cls-1 {
        fill: red;
        fill-rule: evenodd;
      }
    </style>
  </defs>
  <path id="Forma_6" data-name="Forma 6" class="cls-1" d="M505.285,2602.01a56.969,56.969,0,0,1-21.177-4.08,55.961,55.961,0,0,1-18.609-12.17A54.836,54.836,0,0,1,449,2546.6a1.37,1.37,0,0,1,.421-0.99,1.431,1.431,0,0,1,1.016-.42h19.426a1.456,1.456,0,0,1,1.088.5,1.4,1.4,0,0,1,.278.54l4,14.68a1.409,1.409,0,0,1-1,1.75l-5.724,1.52,0.778,1.42a37,37,0,0,0,16.7,16.44l1.45,0.77,1.541-5.64a1.428,1.428,0,0,1,.673-0.85,1.46,1.46,0,0,1,.709-0.18,1.229,1.229,0,0,1,.381.05l14.923,3.91a1.421,1.421,0,0,1,.763.51,1.387,1.387,0,0,1,.3.86v19.12a1.379,1.379,0,0,1-.42,1,1.433,1.433,0,0,1-1.016.42h0Zm-53.3-52.64a52.092,52.092,0,0,0,15.55,34.39,53.651,53.651,0,0,0,34.933,15.27l1.376,0.08v-16.54l-12.482-3.29-1.654,6.02a1.434,1.434,0,0,1-.765.9,1.483,1.483,0,0,1-.622.14,1.6,1.6,0,0,1-.574-0.11,43.748,43.748,0,0,1-13.51-9.07,43.1,43.1,0,0,1-9.211-13.3,1.377,1.377,0,0,1,.024-1.17,1.421,1.421,0,0,1,.92-0.76l6.114-1.63-3.338-12.28H451.915ZM501.6,2566a1.426,1.426,0,0,1-1.011-.43,1.384,1.384,0,0,1-.4-1,10.9,10.9,0,0,0-3.183-7.92,11.278,11.278,0,0,0-8.018-3.23h-0.3a1.441,1.441,0,0,1-.953-0.35,1.4,1.4,0,0,1-.486-0.98,1.373,1.373,0,0,1,.357-1.02,1.456,1.456,0,0,1,.972-0.48h0.417A14.067,14.067,0,0,1,499,2554.71a13.638,13.638,0,0,1,4.064,9.9,1.38,1.38,0,0,1-.436.99,1.435,1.435,0,0,1-1,.4H501.6Zm10.063-.1a1.438,1.438,0,0,1-1.017-.43,1.416,1.416,0,0,1-.4-1.01,20.44,20.44,0,0,0-6-14.86,21.061,21.061,0,0,0-14.987-6.08h-0.338c-0.03,0-.06.01-0.09,0.01a1.451,1.451,0,0,1-.953-0.36,1.415,1.415,0,0,1-.485-0.97,1.388,1.388,0,0,1,.357-1.03,1.451,1.451,0,0,1,.991-0.48h0.494a23.94,23.94,0,0,1,17.016,6.98,23.127,23.127,0,0,1,6.871,16.8v0.02a1.406,1.406,0,0,1-.426,1,1.461,1.461,0,0,1-1.013.41h-0.013Zm11.883-.14a1.434,1.434,0,0,1-1.016-.43,1.413,1.413,0,0,1-.4-1.01,31.693,31.693,0,0,0-9.331-23.04,32.67,32.67,0,0,0-23.251-9.46h-0.461l-0.025.01H488.97a1.448,1.448,0,0,1-.952-0.36,1.4,1.4,0,0,1-.486-0.97,1.42,1.42,0,0,1,1.3-1.5c0.016,0,.074-0.01.092-0.01h0.06l0.043,0.01h0.042c0.15-.01.3-0.01,0.448-0.01a35.548,35.548,0,0,1,25.281,10.36,34.385,34.385,0,0,1,10.2,24.98v0.02a1.406,1.406,0,0,1-.426,1,1.461,1.461,0,0,1-1.013.41H523.55Z" transform="translate(-449 -2529)"/>
</svg>
