<svg width="102" height="102" viewBox="0 0 102 102" fill="none" xmlns="http://www.w3.org/2000/svg">
<g clip-path="url(#clip0_2_214)">
<path d="M68.7525 83.6037C68.6499 83.3986 68.4789 83.3302 68.2394 83.467L67.5211 83.8431C67.3159 83.9457 67.2133 84.185 67.3159 84.356L68.0342 85.7238C68.2052 86.0999 68.4447 86.0999 68.7525 85.9289L69.2314 85.6554C69.5734 85.4844 69.6418 85.3476 69.4708 85.0057L68.7525 83.6037Z" fill="white"/>
<path d="M60.9196 84.3218C60.817 83.9457 60.6117 83.8773 60.2355 83.9799L59.6882 84.1167C59.3461 84.2193 59.2093 84.3218 59.3461 84.7322L59.7566 86.2367C59.825 86.476 59.996 86.5786 60.2355 86.5102L61.0222 86.3051C61.2616 86.2367 61.3984 86.0315 61.3642 85.8264L60.9196 84.3218Z" fill="white"/>
<path d="M84.692 70.8153C80.348 69.6527 75.9697 68.6953 71.523 67.9772C66.6317 73.8585 59.2433 77.5856 50.9999 77.5856C42.7564 77.5856 35.3681 73.8585 30.4767 67.9772C26.0301 68.6953 21.6176 69.6185 17.3077 70.8153L16.7262 70.9863L9.20109 35.288C7.31981 40.3144 6.36206 45.5803 6.36206 51.0171C6.36206 57.0352 7.52504 62.8823 9.85099 68.3875C12.1085 73.6876 15.3238 78.4747 19.4285 82.5437C23.5331 86.647 28.2876 89.8612 33.6236 92.118C39.1307 94.4432 44.9798 95.6058 50.9999 95.6058C57.02 95.6058 62.8691 94.409 68.3761 92.118C73.7122 89.8612 78.4667 86.647 82.5713 82.5437C86.6759 78.4405 89.8912 73.6876 92.1488 68.3875C94.4747 62.8823 95.6377 57.0694 95.6377 51.0171C95.6377 45.6487 94.68 40.417 92.8329 35.4247L85.2393 70.9863L84.692 70.8153ZM68.2051 72.7985L68.4445 74.9527L66.4606 74.0637L68.2051 72.7985ZM65.845 74.474V76.6624L63.9295 75.5682L65.845 74.474ZM63.2796 75.876L63.0401 78.0644L61.2615 76.765L63.2796 75.876ZM57.8409 77.8934L57.1568 79.9792L55.686 78.3721L57.8409 77.8934ZM46.2796 78.3379L44.8087 79.945L44.1246 77.8592L46.2796 78.3379ZM43.4405 77.6882L41.7987 79.1586L41.354 77.0044L43.4405 77.6882ZM40.7041 76.765L38.9254 78.0644L38.686 75.876L40.7041 76.765ZM36.1548 74.4398L38.0361 75.534L36.1548 76.6282V74.4398ZM33.7604 72.7985L35.5391 74.0637L33.5552 74.9527L33.7604 72.7985ZM31.5713 70.8495L33.2132 72.3198L31.1266 72.9695L31.5713 70.8495ZM29.6216 68.7295L31.0924 70.3366L28.9375 70.7811L29.6216 68.7295ZM34.3077 81.005L33.8973 80.7657L31.5371 84.9715L32.7685 85.6554L33.1448 85.0057L33.6578 85.2792L33.0079 86.476L30.2373 84.9031L30.511 84.4244L30.9214 84.6638L33.3158 80.3895L32.8711 80.1502L33.1448 79.6715L34.5814 80.4579L34.3077 81.005ZM36.4969 87.4676L36.2916 87.9805L34.7866 87.3651L34.9918 86.8522L35.4365 87.0573L37.352 82.5437L36.9073 82.3386L37.1126 81.8257L38.6518 82.4412L38.4466 82.9541L37.9677 82.7489L36.0864 87.2625L36.4969 87.4676ZM44.0904 84.6638L43.6458 84.527L42.346 89.2457L42.8248 89.3825L42.688 89.9296L41.2514 89.5193L41.3882 88.9722L41.7987 89.0748L43.0301 84.6296H42.9959L41.0804 87.9464L40.6699 87.8096L40.7041 83.9799H40.6699L39.4385 88.4251L39.9174 88.5618L39.7806 89.109L38.2071 88.6986L38.3439 88.1515L38.8228 88.2883L40.1226 83.5696L39.6437 83.4328L39.7806 82.9199L41.2172 83.296L41.1488 86.6812L42.7906 83.7063L44.2272 84.1167L44.0904 84.6638ZM48.6397 85.8605L48.1609 90.1348L48.6055 90.169L48.5371 90.716L46.9295 90.5451L46.9979 89.998L47.4767 90.0664L47.6478 88.4593L46.0401 88.2883L45.8691 89.8954L46.348 89.9638L46.2796 90.5109L44.6719 90.3399L44.7403 89.7928L45.2192 89.827L45.6981 85.5528C45.8007 84.6638 46.4164 84.3902 47.2715 84.4586C48.1951 84.5612 48.7423 85.0057 48.6397 85.8605ZM47.8872 80.4579L46.9979 78.4747L49.187 78.714L47.8872 80.4579ZM49.8711 78.714H52.0602L50.9657 80.5947L49.8711 78.714ZM52.0944 89.2457L52.0602 88.4935L52.8128 88.4593L52.847 89.2115L52.0944 89.2457ZM54.0784 80.4579L52.7786 78.6799L54.9677 78.4405L54.0784 80.4579ZM56.3701 90.3741L56.3017 89.827L56.7806 89.7586L56.028 84.9715L55.4808 85.0741L55.3781 84.4586L56.6095 84.2876L57.4305 89.6561L57.9093 89.5877L57.9777 90.1348L56.3701 90.3741ZM60.6115 77.0044L60.1669 79.1586L58.525 77.6882L60.6115 77.0044ZM61.8087 89.2457L60.1669 89.6902L60.0985 89.6561L59.7564 88.3567L60.3379 88.1857L60.5431 88.938L61.6377 88.6302C61.9456 88.5619 62.014 88.3225 61.9456 88.0489L61.5009 86.4418C61.4325 86.7154 61.2272 86.8522 60.9878 86.9205L60.1327 87.1599C59.688 87.2967 59.2775 87.1599 59.1407 86.647L58.6961 85.0057C58.525 84.3902 58.7303 83.8431 59.2775 83.6721L60.3037 83.3986C60.9194 83.2276 61.3641 83.5354 61.5693 84.2192L62.5955 87.9122C62.7665 88.596 62.527 89.0406 61.8087 89.2457ZM64.682 88.2883L64.4767 87.7754L64.9556 87.6044L63.2111 83.0908L62.6981 83.296L62.4928 82.7489L63.6216 82.3044L65.6055 87.3651L66.0502 87.1941L66.2554 87.707L64.682 88.2883ZM69.7443 86.0657L68.8208 86.5444C68.2735 86.818 67.7262 86.647 67.4184 86.0315L65.6739 82.6121C65.3319 81.9625 65.4687 81.4495 66.1528 81.1076L67.6578 80.3553L67.7262 80.3895L68.3419 81.5521L67.7946 81.8257L67.4526 81.1418L66.4264 81.6889C66.1528 81.8257 66.1186 82.065 66.2554 82.3044L67.0421 83.8089C67.0421 83.5354 67.2132 83.3644 67.4184 83.2618L68.2051 82.8515C68.6156 82.6463 69.026 82.6805 69.2655 83.1592L70.0522 84.6638C70.36 85.2451 70.2574 85.7922 69.7443 86.0657ZM68.7524 72.3198L70.36 70.8495L70.8389 72.9695L68.7524 72.3198ZM70.9073 70.3708L72.3782 68.7295L73.0623 70.8153L70.9073 70.3708Z" fill="white"/>
<path d="M47.2374 85.0399C46.8611 85.0057 46.4507 85.1083 46.3823 85.5186L46.1428 87.6045L47.7163 87.7754L47.9557 85.6554C48.0241 85.2793 47.6136 85.0741 47.2374 85.0399Z" fill="white"/>
<path d="M68.3762 9.91617C62.8691 7.59099 57.02 6.42841 50.9999 6.42841C44.9456 6.42841 39.1307 7.59099 33.6237 9.91617C28.2876 12.173 23.5331 15.3872 19.4285 19.4904C15.3581 23.4911 12.1428 28.2098 9.91943 33.4415H30.9556C35.847 27.9021 42.9959 24.3801 50.9999 24.3801C59.0039 24.3801 66.1528 27.8679 71.01 33.4415H92.0462C89.7886 28.2098 86.6076 23.5253 82.5371 19.4904C78.4667 15.353 73.7122 12.1388 68.3762 9.91617ZM29.6216 33.2705L28.9375 31.1847L31.0925 31.6292L29.6216 33.2705ZM31.5713 31.1163L31.1267 28.9963L33.2132 29.6802L31.5713 31.1163ZM33.7605 29.2015L33.5552 27.0131L35.5392 27.9021L33.7605 29.2015ZM36.1548 27.526V25.3376L38.0361 26.4318L36.1548 27.526ZM38.3782 19.6956L36.9416 20.3453C36.2233 20.653 35.7786 20.482 35.4707 19.764L33.8973 16.3104C33.5895 15.6265 33.7605 15.1478 34.4446 14.8401L35.8812 14.1904L35.9496 14.2246L36.5653 15.5581L36.018 15.7975L35.6418 14.9768L34.7524 15.3872C34.3762 15.5581 34.4104 15.7975 34.5472 16.1394L36.0522 19.4562C36.189 19.764 36.3943 19.9691 36.7705 19.764L37.6599 19.3878L37.2836 18.533L37.8309 18.2936L38.4466 19.6614L38.3782 19.6956ZM38.0361 13.9852L37.8651 13.4381L40.9094 12.5149L41.2856 13.7801L40.7041 13.951L40.4989 13.2672L39.1307 13.6775L39.7122 15.6265L40.5673 15.353L40.4647 14.9427L40.9778 14.7717L41.3882 16.1394L40.841 16.3104L40.7041 15.9001L39.849 16.1736L40.4647 18.2253L41.8329 17.8149L41.6277 17.0969L42.2092 16.9259L42.5854 18.2253L39.5412 19.1485L39.3701 18.6356L39.849 18.4988L38.4466 13.8143L38.0361 13.9852ZM38.686 26.124L38.9255 23.9356L40.7041 25.235L38.686 26.124ZM41.354 24.9614L41.7987 22.8072L43.4406 24.2775L41.354 24.9614ZM44.1247 24.1066L44.8088 22.0208L46.2796 23.6621L44.1247 24.1066ZM46.8953 16.9601L47.3057 16.8917L46.6558 12.3439H46.6216L46.177 16.1394L45.7665 16.2078L44.2957 12.6859H44.2615L44.9114 17.2336L45.4245 17.1652L45.4929 17.7123L43.8852 17.9517L43.8168 17.4046L44.2957 17.3362L43.5774 12.5149L43.0985 12.5833L43.0301 12.0362L44.5351 11.831L45.8349 14.9768L46.1428 11.5917L47.6136 11.3865L47.682 11.9336L47.2031 11.9678L47.9214 16.7891L48.4003 16.7207L48.4687 17.2678L46.9637 17.473L46.8953 16.9601ZM46.9979 23.5253L47.8872 21.542L49.187 23.3201L46.9979 23.5253ZM49.6659 16.6865H50.1448L50.179 11.7968H49.7001V11.2497L52.8812 11.2839V12.5833H52.2655V11.8652H50.8289L50.7947 13.9168H51.7182V13.4723L52.2655 13.5065V14.9427H51.7182V14.4981H50.7947V16.6523L52.2313 16.6865V15.9343H52.8128V17.2678L49.5975 17.2336L49.6659 16.6865ZM49.8711 23.2517L50.9657 21.3711L52.0603 23.2517H49.8711ZM52.8128 23.3201L54.1126 21.542L55.0019 23.5595L52.8128 23.3201ZM55.686 23.6621L57.1569 22.0208L57.841 24.1066L55.686 23.6621ZM57.4647 17.9175L56.9174 17.8491L55.9255 12.8568H55.8913L55.2756 16.9943L55.7886 17.0627L55.7202 17.6098L54.1468 17.3704L54.2152 16.8233L54.6941 16.8917L55.4124 12.0704L54.9677 12.002L55.0361 11.4549L56.2675 11.6259L57.1569 15.9685H57.1911L57.7383 12.3781L57.1911 12.3097L57.2595 11.7626L58.8671 12.002L58.7645 12.5491L58.2856 12.4807L57.4647 17.9175ZM58.5251 24.2775L60.1669 22.8072L60.6116 24.9614L58.5251 24.2775ZM61.2957 25.235L63.0744 23.9356L63.2796 26.124L61.2957 25.235ZM62.9033 14.6691L63.177 13.8143L62.5271 13.6091L61.1247 18.2253L61.6035 18.362L61.4325 18.8749L59.8591 18.4646L60.0301 17.9175L60.4748 18.0543L61.8772 13.4381L61.2615 13.233L60.9878 14.0878L60.4064 13.9168L60.851 12.4807L63.8953 13.4039L63.4506 14.8401L62.9033 14.6691ZM65.8108 27.526L63.8953 26.4318L65.8108 25.3376V27.526ZM64.7504 20.3111C63.9295 19.9349 63.5532 19.3878 63.9295 18.533L65.4003 15.2504C65.7766 14.3956 66.4607 14.3272 67.2474 14.7033C68.0683 15.0452 68.4446 15.6265 68.0683 16.4472L66.5633 19.764C66.2212 20.5846 65.5371 20.6872 64.7504 20.3111ZM68.2051 29.2015L66.4265 27.9021L68.4104 27.0131L68.2051 29.2015ZM70.3943 31.1163L68.7866 29.646L70.8731 28.9621L70.3943 31.1163ZM72.3782 33.2705L70.9074 31.6292L73.0623 31.1505L72.3782 33.2705Z" fill="white"/>
<path d="M67.0423 15.2162C66.5977 15.011 66.2556 15.0794 66.0504 15.4556L64.5112 18.8749C64.3401 19.2853 64.5796 19.593 64.99 19.764C65.3663 19.9349 65.811 19.9349 65.982 19.5588L67.5554 16.1052C67.6922 15.7291 67.4186 15.4214 67.0423 15.2162Z" fill="white"/>
<path d="M50.9999 4.13745C25.0723 4.13745 4.07031 25.1324 4.07031 50.9829C4.07031 76.8334 25.0723 97.8284 50.9999 97.8284C76.8933 97.8284 97.9295 76.8676 97.9295 50.9829C97.9295 25.1324 76.8933 4.13745 50.9999 4.13745ZM96.8007 50.9829C96.8007 76.2179 76.2776 96.7 50.9999 96.7C25.688 96.7 5.19909 76.2179 5.19909 50.9829C5.19909 25.7137 25.7222 5.26585 50.9999 5.26585C70.0522 5.26585 86.4023 16.8917 93.2776 33.4073C95.5351 38.8441 96.8007 44.7596 96.8007 50.9829Z" fill="white"/>
<path d="M53.8389 2.97486C53.8389 2.97486 52.0602 0.0341938 52.026 0C52.026 0 52.026 0 51.9918 0L50.179 2.97486H53.8389Z" fill="white"/>
<path d="M46.8268 0.307739L45.2876 3.41937L48.8792 3.11163L46.8268 0.307739Z" fill="white"/>
<path d="M42.1408 0.957397L40.8752 4.20581L44.4326 3.55612L42.1408 0.957397Z" fill="white"/>
<path d="M37.7625 1.91486L36.7705 5.26585L40.2936 4.30842L37.7625 1.91486Z" fill="white"/>
<path d="M33.4868 3.28259L32.8027 6.70197L36.1891 5.4368L33.4868 3.28259Z" fill="white"/>
<path d="M29.3482 4.99231L28.9719 8.44588L32.2556 6.90716L29.3482 4.99231Z" fill="white"/>
<path d="M25.3802 7.07812L25.3118 10.5659L28.4244 8.75362L25.3802 7.07812Z" fill="white"/>
<path d="M24.7988 10.8736L21.5835 9.47168L21.8229 12.9594L24.7988 10.8736Z" fill="white"/>
<path d="M21.344 13.3355L18.0603 12.2072L18.6076 15.6607L21.344 13.3355Z" fill="white"/>
<path d="M18.1287 16.0711L14.7766 15.2504L15.5975 18.6356L18.1287 16.0711Z" fill="white"/>
<path d="M15.1872 19.0801L11.7324 18.5672L12.8954 21.884L15.1872 19.0801Z" fill="white"/>
<path d="M12.5192 22.3627L9.03027 22.1575L10.4669 25.3376L12.5192 22.3627Z" fill="white"/>
<path d="M10.1247 25.8505L6.63574 25.9189L8.346 28.9621L10.1247 25.8505Z" fill="white"/>
<path d="M8.0724 29.5092L4.61768 29.9195L6.56737 32.826L8.0724 29.5092Z" fill="white"/>
<path d="M6.32797 33.3731L2.94165 34.057L5.13078 36.7583L6.32797 33.3731Z" fill="white"/>
<path d="M4.95978 37.3396L1.60767 38.3312L4.07044 40.8615L4.95978 37.3396Z" fill="white"/>
<path d="M3.93358 41.4429L0.684082 42.7422L3.35209 44.999L3.93358 41.4429Z" fill="white"/>
<path d="M3.24939 45.6145L0.136719 47.1532L2.97575 49.2048L3.24939 45.6145Z" fill="white"/>
<path d="M2.97586 49.8203L0 51.6326L3.01006 53.4107L2.97586 49.8203Z" fill="white"/>
<path d="M3.04433 54.0261L0.239502 56.1119L3.38638 57.6165L3.04433 54.0261Z" fill="white"/>
<path d="M3.489 58.232L0.889404 60.523L4.17311 61.754L3.489 58.232Z" fill="white"/>
<path d="M1.91553 64.8998L5.26764 65.823L4.27569 62.3694L1.91553 64.8998Z" fill="white"/>
<path d="M5.4728 66.4043L3.31787 69.1398L6.7384 69.7895L5.4728 66.4043Z" fill="white"/>
<path d="M6.97797 70.3365L5.09668 73.243L8.55141 73.585L6.97797 70.3365Z" fill="white"/>
<path d="M8.85914 74.1321C8.85914 74.1321 7.21729 77.1753 7.21729 77.2095L10.7062 77.2437L8.85914 74.1321Z" fill="white"/>
<path d="M11.0484 77.7224L9.68018 80.9025L13.1691 80.6289L11.0484 77.7224Z" fill="white"/>
<path d="M13.5452 81.1418L12.4849 84.4244L15.9054 83.8431L13.5452 81.1418Z" fill="white"/>
<path d="M16.316 84.2877L15.5293 87.6728C15.5293 87.6728 15.5293 87.6728 15.5635 87.6728L18.9156 86.7838L16.316 84.2877Z" fill="white"/>
<path d="M19.3944 87.1941L18.9155 90.6135C18.9155 90.6135 18.9155 90.6135 18.9497 90.6135L22.1992 89.4509L19.3944 87.1941Z" fill="white"/>
<path d="M22.6781 89.8612L22.5071 93.3148L25.654 91.8444L22.6781 89.8612Z" fill="white"/>
<path d="M26.2012 92.1864L26.338 95.64L29.3481 93.8961L26.2012 92.1864Z" fill="white"/>
<path d="M29.8953 94.2039L30.3399 97.6574L33.2132 95.6742L29.8953 94.2039Z" fill="white"/>
<path d="M34.513 99.2645L37.181 97.0419L33.7605 95.8793L34.513 99.2645Z" fill="white"/>
<path d="M37.7969 97.2129L38.823 100.53L41.2858 98.0677L37.7969 97.2129Z" fill="white"/>
<path d="M41.9014 98.1703L43.2354 101.385L45.4587 98.7174L41.9014 98.1703Z" fill="white"/>
<path d="M46.0745 98.82L47.6821 101.897C47.6821 101.897 47.6821 101.897 47.7163 101.897L49.7002 99.0594L46.0745 98.82Z" fill="white"/>
<path d="M50.2817 99.0594C50.2817 99.0594 52.0604 101.829 52.1288 101.966C52.1288 101.966 52.1288 101.966 52.163 101.966L53.9075 98.9568L50.2817 99.0594Z" fill="white"/>
<path d="M54.5232 98.9226L56.6439 101.658C56.6439 101.658 56.6439 101.658 56.6781 101.658L58.1489 98.5123L54.5232 98.9226Z" fill="white"/>
<path d="M58.7305 98.4438L61.0564 101.008L62.2536 97.7258L58.7305 98.4438Z" fill="white"/>
<path d="M62.835 97.589L65.4004 99.9142L66.2897 96.5632L62.835 97.589Z" fill="white"/>
<path d="M66.9055 96.358L69.6761 98.478L70.2576 95.0587L66.9055 96.358Z" fill="white"/>
<path d="M70.8049 94.7851L73.7124 96.6316C73.7124 96.6316 73.7124 96.6316 73.7466 96.6316L74.0544 93.178L70.8049 94.7851Z" fill="white"/>
<path d="M74.5674 92.9045L77.6459 94.4774C77.6459 94.4774 77.6459 94.4774 77.6801 94.4774L77.6459 91.0238L74.5674 92.9045Z" fill="white"/>
<path d="M81.3743 91.9812V91.947L81.3401 91.9812H81.3743Z" fill="white"/>
<path d="M78.1589 90.6477L81.34 91.9471L81.3742 91.9129L81.0664 88.4593L78.1589 90.6477Z" fill="white"/>
<path d="M84.8631 89.1431V89.1089L84.8289 89.1431H84.8631Z" fill="white"/>
<path d="M81.5452 88.1173L84.8289 89.1431L84.8631 89.1089L84.2474 85.7238L81.5452 88.1173Z" fill="white"/>
<path d="M88.0784 86.0315V85.9973L88.0442 86.0315H88.0784Z" fill="white"/>
<path d="M84.6921 85.3135L88.0442 86.0315L88.0785 85.9973L87.1549 82.6805L84.6921 85.3135Z" fill="white"/>
<path d="M91.0201 82.6463V82.6121L90.9858 82.6463H91.0201Z" fill="white"/>
<path d="M87.5654 82.236L90.9859 82.6805L91.0202 82.6464L89.823 79.3979L87.5654 82.236Z" fill="white"/>
<path d="M93.6539 79.0218L93.6197 78.9876L93.5854 79.0218H93.6539Z" fill="white"/>
<path d="M90.165 78.9192L93.6198 79.056L93.654 79.0218L92.1489 75.9102L90.165 78.9192Z" fill="white"/>
<path d="M95.9463 75.1925C95.9111 75.1573 95.9111 75.1925 95.9463 75.1925V75.1925Z" fill="white"/>
<path d="M92.4568 75.3631L95.9115 75.1921V75.1579L94.167 72.183L92.4568 75.3631Z" fill="white"/>
<path d="M97.896 71.1577C97.8608 71.1225 97.8608 71.1577 97.896 71.1577V71.1577Z" fill="white"/>
<path d="M94.4407 71.636L97.8612 71.1573V71.1231L95.8431 68.3192L94.4407 71.636Z" fill="white"/>
<path d="M96.0825 67.7379L99.4346 66.9514C99.4346 66.9514 99.4346 66.9514 99.4346 66.9172L97.1771 64.2843L96.0825 67.7379Z" fill="white"/>
<path d="M97.3823 63.7372L100.666 62.6772C100.666 62.6772 100.666 62.6772 100.666 62.643L98.169 60.2152L97.3823 63.7372Z" fill="white"/>
<path d="M101.522 58.2666C101.487 58.2314 101.487 58.2666 101.522 58.2666V58.2666Z" fill="white"/>
<path d="M98.3059 59.6339L101.487 58.2662C101.487 58.2662 101.487 58.2662 101.487 58.232L98.7848 56.0436L98.3059 59.6339Z" fill="white"/>
<path d="M98.853 55.4623L101.897 53.821L99.0241 51.8719L98.853 55.4623Z" fill="white"/>
<path d="M99.0584 51.2222C99.0584 51.2222 101.932 49.3416 101.966 49.3416C101.966 49.3416 101.966 49.3416 101.966 49.3074L98.9216 47.6319L99.0584 51.2222Z" fill="white"/>
<path d="M101.624 44.8622L98.4426 43.4261L98.8873 47.0164L101.624 44.8622Z" fill="white"/>
<path d="M97.5874 39.3228L98.3399 42.8448L100.905 40.4512L97.5874 39.3228Z" fill="white"/>
<path d="M97.4507 38.7073L99.7767 36.1086L96.3904 35.2538L97.4507 38.7073Z" fill="white"/>
<path d="M96.1851 34.7067L98.2374 31.9028L94.8169 31.3557L96.1851 34.7067Z" fill="white"/>
<path d="M94.5432 30.8086L96.3903 27.8337L92.9014 27.5944L94.5432 30.8086Z" fill="white"/>
<path d="M92.5935 27.0815L94.1669 23.9698L90.678 24.004L92.5935 27.0815Z" fill="white"/>
<path d="M90.3361 23.4911L91.6017 20.2769L88.147 20.653L90.3361 23.4911Z" fill="white"/>
<path d="M87.7364 20.1744L88.7626 16.8234L85.3079 17.5072L87.7364 20.1744Z" fill="white"/>
<path d="M85.5816 13.6775L82.2295 14.6349L84.8975 17.0627L85.5816 13.6775Z" fill="white"/>
<path d="M82.1609 10.7711L78.9114 12.0362L81.7846 14.2246L82.1609 10.7711Z" fill="white"/>
<path d="M78.3983 11.6601L78.5009 8.20648L75.354 9.7452L78.3983 11.6601Z" fill="white"/>
<path d="M74.6016 5.94971L71.6257 7.76198L74.841 9.43747L74.6016 5.94971Z" fill="white"/>
<path d="M71.0784 7.48841L70.5654 4.06903L67.7263 6.12066L71.0784 7.48841Z" fill="white"/>
<path d="M66.2898 2.39355L63.6218 4.61615L67.0423 5.77874L66.2898 2.39355Z" fill="white"/>
<path d="M61.6722 1.1626L59.3462 3.79552L62.9035 4.41101L61.6722 1.1626Z" fill="white"/>
<path d="M57.0542 0.307739L57.02 0.341933C57.0542 0.341933 57.0542 0.341933 57.0884 0.341933L57.0542 0.307739Z" fill="white"/>
<path d="M58.4568 3.48775L57.0886 0.341919C57.0544 0.341919 57.0544 0.341919 57.0202 0.341919L54.8652 3.04323L58.4568 3.48775Z" fill="white"/>
<path d="M51.0001 64.1133C43.5776 64.1133 36.1893 64.7288 28.9377 65.9598C29.1772 66.3017 29.4166 66.6436 29.6561 66.9514C36.6681 65.7888 43.817 65.2075 51.0001 65.2075C58.1832 65.2075 65.2979 65.7888 72.3442 66.9514C72.5836 66.6094 72.8231 66.3017 73.0625 65.9598C65.7768 64.7288 58.3885 64.1133 51.0001 64.1133Z" fill="white"/>
<path d="M73.7122 64.9339C76.2092 60.8991 77.6458 56.1119 77.6458 51.0171C77.6458 45.7854 76.1408 40.9299 73.5412 36.8267H28.4245C25.8249 40.9299 24.3198 45.7854 24.3198 51.0171C24.3198 56.1119 25.7564 60.8991 28.2534 64.9339C35.7444 63.6346 43.3379 62.9849 50.9999 62.9849C58.6277 62.9507 66.2212 63.6346 73.7122 64.9339ZM60.6116 54.9152H61.6377V45.9564H60.6116V42.3661H66.8027V45.9564H65.7766V54.9152H68.684V52.9661H72.5834V58.3003H60.6458V54.9152H60.6116ZM39.4385 57.0694C38.2756 58.061 36.5995 58.5739 34.4104 58.5739C32.3581 58.5739 30.6478 58.3003 28.8007 57.6849L28.5613 57.6165V52.9661H32.4607V55.0861C33.2132 55.3255 33.9999 55.3597 34.684 55.3597C36.189 55.3597 37.0442 54.7442 37.0442 53.65C37.0442 53.1371 36.8731 52.6242 34.8208 52.1113L33.1448 51.6668C29.9295 50.8461 28.6639 49.5126 28.6639 46.948C28.6639 45.5461 29.177 44.3493 30.1689 43.4944C31.2977 42.537 32.9395 42.0241 35.0261 42.0241C36.9074 42.0241 38.8228 42.3319 40.1911 42.8448L40.4305 42.9473V47.1874H36.8389V45.2383C36.4285 45.1016 35.8128 44.9648 35.1287 44.9648C33.3158 44.9648 32.7001 45.7854 32.7001 46.5377C32.7001 47.3583 33.2132 47.6319 34.2393 47.8712L36.0864 48.3158C38.0703 48.8287 41.0804 49.5809 41.0804 53.1371C41.0804 54.8126 40.4989 56.1461 39.4385 57.0694ZM42.4144 50.1964C42.4144 45.5461 46.2112 41.7164 50.9657 41.7164C55.6518 41.7164 59.4486 45.4435 59.4486 50.0938C59.4486 54.8126 55.6176 58.6423 50.9315 58.6423C46.2454 58.6423 42.4144 54.881 42.4144 50.1964Z" fill="white"/>
<path d="M29.177 35.6641H72.7887C72.515 35.288 72.2414 34.9118 71.9677 34.5357C56.507 34.5357 45.4587 34.5357 30.0321 34.5357C29.7243 34.9118 29.4506 35.288 29.177 35.6641Z" fill="white"/>
<path d="M50.8974 45.7513C48.4004 45.7513 46.4507 47.7003 46.4507 50.1623C46.4507 52.6584 48.4688 54.6075 50.8974 54.6075C53.3601 54.6075 55.3782 52.59 55.3782 50.0939C55.3782 47.7003 53.3943 45.7513 50.8974 45.7513Z" fill="white"/>
<path d="M28.4246 36.8267H12.9639L19.2918 66.8146C22.2677 66.0965 25.2435 65.4468 28.2878 64.9339C25.7908 60.8991 24.3542 56.1119 24.3542 51.0171C24.32 45.7854 25.825 40.9299 28.4246 36.8267Z" fill="white"/>
<path d="M17.5815 69.5843C21.5493 68.5243 25.5855 67.6695 29.6559 66.9856C29.4165 66.6436 29.177 66.3359 28.9376 65.994C25.5855 66.5753 22.2676 67.2591 18.9839 68.0798L18.4024 68.2166L11.5271 35.6983H29.177C29.4507 35.3221 29.7243 34.946 29.998 34.5699C22.7123 34.5699 10.1589 34.5699 10.1589 34.5699L17.5815 69.5843Z" fill="white"/>
<path d="M73.7123 64.9339C76.7223 65.4468 79.7324 66.0965 82.7083 66.8146L89.1046 36.8267H73.5413C76.1409 40.9299 77.6459 45.7854 77.6459 51.0171C77.6459 56.1119 76.2093 60.8649 73.7123 64.9339Z" fill="white"/>
<path d="M90.507 35.6641L83.5633 68.1824L83.0161 68.0456C79.7324 67.2249 76.4145 66.5069 73.0623 65.9598C72.8229 66.3017 72.5835 66.6436 72.344 66.9514C76.4145 67.6353 80.4507 68.4901 84.4185 69.5501L91.8752 34.5357C91.8752 34.5357 79.2877 34.5357 71.9678 34.5357C72.2414 34.9118 72.5151 35.288 72.7887 35.6641H90.507Z" fill="white"/>
</g>
<defs>
<clipPath id="clip0_2_214">
<rect width="102" height="102" fill="white"/>
</clipPath>
</defs>
</svg>
