<svg width="95" height="100" viewBox="0 0 95 100" fill="none" xmlns="http://www.w3.org/2000/svg">
<path d="M95 47.2839C95 21.1821 73.7288 0 47.4828 0C21.2369 0 0 21.1821 0 47.2839C0 71.8483 18.8353 92.0396 42.9198 94.3287C42.4395 95.012 41.8563 95.5586 41.1358 95.9686C41.2044 96.686 41.6847 96.9593 41.6847 96.9593C41.6847 96.9593 41.9592 97.1302 42.3366 97.1302C42.6797 97.1302 43.2629 96.9935 43.8805 96.3444C43.9148 96.3102 43.9834 96.276 44.0177 96.3102C44.052 96.3444 44.0863 96.3785 44.0863 96.4469C43.9834 97.1643 43.606 97.8135 43.0228 98.2234C43.1943 98.7017 43.5717 98.9751 44.0863 99.0092C44.6353 99.0092 44.9783 98.4284 45.1499 97.9501C45.1842 97.8818 45.2185 97.8818 45.2871 97.8818C45.3557 97.8818 45.39 97.9501 45.39 97.9843C45.39 98.0868 45.39 98.1893 45.39 98.2576C45.39 98.6676 45.2871 99.0776 45.1156 99.4534C45.836 99.795 46.6251 100 47.4485 100C48.2719 100 49.0267 99.8292 49.7815 99.4534C49.61 99.0776 49.507 98.6676 49.507 98.2576C49.507 98.1551 49.507 98.0526 49.5414 97.9843C49.5414 97.9159 49.61 97.8818 49.6443 97.8818C49.7129 97.8818 49.7472 97.916 49.7815 97.9501C49.9531 98.4284 50.2961 99.0092 50.8451 99.0092C51.394 98.9751 51.7714 98.7017 51.9429 98.2234C51.3597 97.7793 50.9823 97.1643 50.8794 96.4469C50.8794 96.3785 50.9137 96.3444 50.948 96.3102C51.0166 96.276 51.0509 96.3102 51.0852 96.3444C51.7028 96.9935 52.286 97.1302 52.6291 97.1302C53.0065 97.1302 53.2467 96.9935 53.281 96.9593C53.3153 96.9593 53.7956 96.686 53.8642 95.9686C53.1437 95.5928 52.5262 95.012 52.0802 94.3287C76.1647 92.0396 95 71.8483 95 47.2839ZM44.052 77.3147L43.9834 77.2805L44.0177 77.2122C44.0863 77.1097 44.1892 77.0072 44.2579 76.973H44.2922H44.3265C44.7039 77.0413 45.0126 77.0755 45.3214 77.0755C46.6938 77.0755 47.8945 76.768 48.8895 76.1189L48.9581 76.0847L48.9924 76.1189C49.3012 76.3239 49.4727 76.6314 49.4727 77.0072C49.4727 77.178 49.4384 77.3488 49.3698 77.4855V77.5196H49.3355C48.615 77.8955 47.7916 78.1004 46.831 78.1004C46.7281 78.1004 46.6594 78.1004 46.5565 78.1004C45.6988 77.9979 44.8068 77.7588 44.052 77.3147ZM45.7674 74.5473C45.8017 74.6498 45.8017 74.7523 45.7331 74.8548C45.6645 74.9573 45.5616 75.0598 45.4243 75.094C45.3557 75.1281 45.3214 75.1281 45.2528 75.1281C45.0469 75.1281 44.8754 75.0256 44.8411 74.8548V74.8206C44.8411 74.8206 44.8068 74.8206 44.8068 74.8548L44.6353 74.9915L44.6696 74.7865C44.7039 74.5815 44.8754 74.2057 45.39 74.2057C45.5273 74.2057 45.6988 74.2398 45.8703 74.3082L46.2477 74.4448L45.8703 74.479C45.8703 74.479 45.836 74.479 45.7674 74.479C45.7331 74.479 45.7331 74.5132 45.7674 74.5473ZM49.8501 88.5548H49.8158C49.7472 88.5207 49.7472 88.4523 49.7472 88.4182C50.502 86.1291 50.7078 80.5945 50.7078 79.7062C51.5655 79.6379 52.389 79.5012 53.2124 79.3645C58.3929 78.9204 67.073 77.0413 72.7338 69.6276C72.7682 69.5934 72.8025 69.5934 72.8368 69.5934C72.8711 69.5934 72.8711 69.5934 72.9054 69.6276C72.9397 69.6618 72.974 69.7301 72.9397 69.7643C72.9397 69.7984 71.5674 72.2583 68.2738 74.889C66.3525 76.4264 64.1567 77.6905 61.7895 78.6812C58.8389 79.9112 55.5453 80.697 52.0116 81.0044C51.7714 84.6259 49.9531 88.4523 49.9187 88.4865C49.9187 88.5207 49.8844 88.5548 49.8501 88.5548ZM73.1455 64.4687C72.0477 66.1086 70.7783 67.646 69.3716 69.0126C67.965 70.4134 66.4211 71.6775 64.8086 72.7708C63.1618 73.864 61.3778 74.8206 59.5594 75.6064C57.2264 76.5972 54.7905 77.2805 52.286 77.6563C52.0802 77.6563 51.9086 77.6563 51.7371 77.6563C51.2568 77.6563 50.3991 77.6221 50.0903 77.3147C50.1589 77.1438 50.1932 76.973 50.1932 76.8022C50.1932 76.2897 49.9187 75.8456 49.507 75.6064C49.61 75.2989 49.6786 74.889 49.5414 74.4448C49.5414 74.4107 49.507 74.3765 49.4384 74.3423C49.4041 74.3423 49.3355 74.3423 49.3012 74.3765C49.3012 74.3765 48.9238 74.7523 48.169 74.8548C47.7573 74.274 46.8653 73.3857 45.39 73.3857C45.2528 73.3857 45.1156 73.3857 44.9783 73.4199C44.7725 73.1124 44.3951 72.9074 44.0177 72.9074C43.4001 72.9074 42.8855 73.4199 42.8855 74.0348C42.8855 74.069 42.8855 74.1032 42.8855 74.1373C42.5424 74.2398 41.6504 74.5815 41.4103 75.5381C41.4103 75.5723 41.273 75.9822 41.4103 76.5289C41.4103 76.5972 41.4789 76.6314 41.5132 76.6314C41.5818 76.6314 41.6161 76.5972 41.6504 76.563C41.6504 76.563 41.7877 76.2556 42.268 75.9481C42.4395 76.1531 42.8855 76.5972 43.5374 76.7339C43.5717 76.7339 43.606 76.768 43.6403 76.768C43.4345 76.9047 43.2286 77.1438 43.16 77.5196C43.16 77.5196 42.8512 77.5538 42.4052 77.5538C40.0379 77.178 37.7049 76.4947 35.4749 75.5723C33.6566 74.7865 31.8725 73.8299 30.2257 72.7366C28.5789 71.6433 27.035 70.3792 25.6627 68.9785C24.2561 67.5777 22.9866 66.0403 21.8888 64.4346C20.7566 62.7947 19.8303 61.0181 19.0412 59.2074C17.4287 55.4151 16.6053 51.3837 16.6053 47.2156C16.6053 43.0475 17.4287 39.0161 19.0412 35.2238C19.8303 33.413 20.7909 31.6365 21.8888 29.9966C22.9866 28.3567 24.2561 26.8193 25.6627 25.4527C27.0693 24.0519 28.6132 22.7878 30.2257 21.6946C31.8725 20.5671 33.6566 19.6447 35.4749 18.8589C39.2831 17.2532 43.3315 16.4332 47.5172 16.4332C51.7028 16.4332 55.7512 17.2532 59.5594 18.8589C61.3778 19.6447 63.1618 20.6013 64.8086 21.6946C66.4554 22.7878 67.9993 24.0519 69.3716 25.4527C70.7783 26.8534 72.0477 28.3908 73.1455 29.9966C74.2777 31.6365 75.204 33.413 75.9931 35.2238C77.6056 39.0161 78.429 43.0475 78.429 47.2156C78.429 51.3837 77.6056 55.4151 75.9931 59.2074C75.204 61.0864 74.2434 62.8288 73.1455 64.4687ZM22.0946 69.5934C22.1289 69.5934 22.1289 69.5593 22.1632 69.5593C22.1975 69.5593 22.2319 69.5593 22.2662 69.5934C27.9614 77.0072 36.6414 78.8862 41.7877 79.3304C42.6111 79.467 43.4688 79.6037 44.2922 79.672C44.3265 80.5261 44.498 86.095 45.2871 88.384C45.3214 88.4523 45.2871 88.5207 45.2185 88.5207H45.1842C45.1499 88.5207 45.1156 88.4865 45.0813 88.4523C45.0469 88.4182 43.2286 84.5576 42.9884 80.9703C39.4547 80.6628 36.1611 79.877 33.2105 78.6471C30.809 77.6563 28.6475 76.3922 26.7263 74.8548C23.467 72.2241 22.0946 69.7643 22.0603 69.7301C22.026 69.6959 22.026 69.6276 22.0946 69.5934ZM73.0426 84.9675C70.6067 86.6074 67.9993 88.0082 65.2889 89.1698C62.5442 90.3314 59.6623 91.2197 56.7118 91.8346C54.9278 92.2104 53.1437 92.4496 51.3254 92.5863C51.2225 92.2104 51.1882 91.8005 51.1882 91.4247C51.1882 91.2538 51.1882 91.083 51.2225 90.9122C51.3597 89.6823 51.8743 88.589 52.7663 87.7349C52.8007 87.7007 52.8693 87.7007 52.9379 87.7007C52.9722 87.7349 53.0065 87.8032 53.0065 87.8374C52.835 88.4523 52.9036 89.0331 53.2124 89.5798C53.6584 90.3656 54.4818 90.8097 54.7905 90.878C55.0307 90.9464 55.3052 90.9805 55.5453 90.9805C56.1286 90.9805 56.9177 90.7755 57.5352 89.8873C56.9177 88.5207 57.0892 87.0858 57.2607 86.3683L57.2951 86.2658C57.2951 86.1975 57.3637 86.1633 57.4323 86.1633C57.5009 86.1633 57.5352 86.1975 57.5695 86.2658L57.6038 86.4366C58.2214 88.6915 59.182 89.8189 60.4171 89.8189H60.4514H60.4857C60.7259 89.8189 60.9661 89.7848 61.2062 89.7164C61.4464 89.6481 61.6865 89.5456 61.8924 89.4431C62.5785 89.0331 62.9559 88.4523 63.0589 88.2132C61.7895 86.7099 61.4807 84.6942 61.3778 83.6693C61.3778 83.601 61.4121 83.5668 61.4807 83.5326C61.5493 83.4985 61.6179 83.5326 61.6179 83.601C63.4706 86.7783 64.9458 87.4274 65.8378 87.4274C65.9408 87.4274 66.0094 87.4274 66.0437 87.4274C67.3131 87.3591 68.3424 86.5733 68.8913 85.2067C66.3525 84.4209 66.078 82.0977 66.1466 80.7653C66.1466 80.697 66.2152 80.6628 66.2495 80.6286C66.3182 80.6286 66.3868 80.6628 66.3868 80.7311C67.0386 82.986 68.7541 83.3276 69.749 83.3276C70.6067 83.3276 71.2929 83.0885 71.4644 82.986C72.1849 82.576 72.6995 81.8927 73.0426 80.9703C70.9841 80.5261 70.2293 78.9887 69.9549 78.1004C69.9205 78.0321 69.9549 77.9638 70.0235 77.9638C70.0921 77.9296 70.1264 77.9296 70.195 77.9979C71.1557 78.9887 72.082 79.5012 72.974 79.5012C73.866 79.5012 74.7237 78.9546 75.307 77.9979C75.753 77.2122 75.8216 76.8022 75.8902 76.3922L75.9245 76.2897C74.861 76.1872 73.866 75.7431 73.2485 75.3673C73.1798 75.3331 73.1799 75.2648 73.1799 75.1964C73.2142 75.1281 73.2485 75.094 73.3171 75.094C73.5916 75.1281 73.8317 75.1281 74.0719 75.1281C76.3362 75.1281 77.0224 73.7957 77.0224 73.7274C77.4684 72.9074 77.537 72.4291 77.6056 71.7458C77.0567 71.8141 76.4048 71.8141 75.6844 71.6775C75.6158 71.6775 75.5814 71.6092 75.5814 71.5408C75.5814 71.4725 75.6158 71.4383 75.6844 71.4042C76.3362 71.2675 76.8852 70.9259 77.2969 70.3792C78.8064 68.5002 78.1203 64.8787 78.086 64.7421C77.1939 66.0403 76.2333 67.2361 75.2384 68.3635C75.204 68.3977 75.1354 68.4318 75.1011 68.3977C75.0325 68.3635 75.0325 68.3293 75.0325 68.261C75.2384 66.587 75.204 65.2887 75.1697 64.7079C78.3947 59.6515 80.2474 53.7069 80.2474 47.2839C80.2474 29.2791 65.5977 14.6908 47.5172 14.6908C29.4023 14.6908 14.7526 29.2791 14.7526 47.2839C14.7526 53.7069 16.6053 59.6857 19.8303 64.7079C19.796 65.2887 19.7616 66.5528 19.9675 68.261C19.9675 68.3293 19.9332 68.3635 19.8989 68.3977C19.8646 68.4318 19.796 68.3977 19.7616 68.3635C18.7667 67.2361 17.8061 66.0403 16.914 64.7421C16.8797 64.8787 16.1936 68.5002 17.7031 70.3792C18.1148 70.8917 18.6638 71.2333 19.3156 71.4042C19.3843 71.4042 19.4186 71.4725 19.4186 71.5408C19.4186 71.6092 19.3843 71.6433 19.3156 71.6775C18.5952 71.8141 17.9433 71.8141 17.3944 71.7458C17.463 72.4291 17.5659 72.9074 17.9776 73.7274C18.0119 73.7957 18.6981 75.1281 20.9624 75.1281C21.2026 75.1281 21.4428 75.1281 21.7172 75.094C21.7858 75.094 21.8202 75.1281 21.8545 75.1964C21.8888 75.2648 21.8545 75.3331 21.7858 75.3673C21.134 75.7431 20.139 76.1872 19.1098 76.2897L19.1441 76.3922C19.2127 76.8022 19.2813 77.178 19.7273 77.9979C20.3106 78.9546 21.134 79.5012 22.0603 79.5012C22.9523 79.5012 23.8787 78.9887 24.8393 77.9979C24.8736 77.9638 24.9422 77.9296 25.0108 77.9638C25.0795 77.9979 25.0795 78.0663 25.0795 78.1004C24.805 78.9887 24.0159 80.5261 21.9917 80.9703C22.3348 81.8927 22.8494 82.576 23.5356 82.986C23.7071 83.1227 24.4276 83.3618 25.2853 83.3618C26.2459 83.3618 27.9614 83.0202 28.6132 80.7995C28.6475 80.7311 28.6818 80.697 28.7505 80.697C28.8191 80.697 28.8534 80.7653 28.8534 80.8336C28.922 82.166 28.6132 84.4551 26.1087 85.2409C26.6919 86.6074 27.6869 87.3932 28.9563 87.4616C29.0249 87.4616 29.0935 87.4616 29.1965 87.4616C30.0885 87.4616 31.5294 86.8124 33.4164 83.6351C33.4507 83.5668 33.5193 83.5668 33.5536 83.5668C33.6222 83.601 33.6566 83.6351 33.6566 83.7034C33.5879 84.7626 33.2792 86.7441 31.9754 88.2473C32.1127 88.4865 32.4558 89.1015 33.1762 89.4773C33.3821 89.6139 33.6222 89.6823 33.8624 89.7506C34.1026 89.8189 34.3427 89.8531 34.5829 89.8531H34.6172H34.6515C35.8866 89.8531 36.8472 88.7257 37.4648 86.4708L37.4991 86.3C37.4991 86.2316 37.5677 86.1975 37.6363 86.1975C37.7049 86.1975 37.7393 86.2316 37.7736 86.3L37.8079 86.4025C37.9794 87.1199 38.151 88.5548 37.5334 89.9214C38.151 90.8439 38.9401 91.0147 39.5233 91.0147C39.7635 91.0147 40.0036 90.9805 40.2438 90.9122C40.6555 90.8439 41.4446 90.3656 41.8563 89.6139C42.1307 89.1015 42.1994 88.4865 42.0621 87.8715C42.0621 87.8032 42.0621 87.769 42.1307 87.7349C42.165 87.7007 42.2337 87.7007 42.3023 87.769C43.1943 88.6232 43.7089 89.7164 43.8462 90.9464C43.8805 91.1172 43.8805 91.288 43.8805 91.4588C43.8805 91.8346 43.8118 92.2446 43.7432 92.6204C41.9249 92.4838 40.1065 92.2104 38.3568 91.8688C35.4406 91.288 32.5587 90.3656 29.7797 89.204C27.0693 88.0765 24.4619 86.6416 22.026 85.0017C19.6244 83.3618 17.3258 81.5169 15.2672 79.4329C13.2087 77.383 11.3218 75.1281 9.67497 72.7024C8.02817 70.2767 6.62152 67.6802 5.45504 64.9812C4.28855 62.248 3.39653 59.3782 2.77898 56.44C2.16143 53.4335 1.85265 50.3587 1.85265 47.2839C1.85265 44.2091 2.16143 41.1001 2.77898 38.1278C3.39653 35.2238 4.28855 32.3539 5.45504 29.5866C6.55291 26.8876 7.95955 24.2911 9.60636 21.8654C11.2532 19.4739 13.1058 17.1848 15.1986 15.1349C17.2571 13.0851 19.5558 11.206 21.9574 9.56611C24.3933 7.9262 27.0007 6.52545 29.7111 5.36385C32.4558 4.20225 35.3377 3.31397 38.2882 2.69901C41.3073 2.08405 44.3951 1.77656 47.4828 1.77656C50.5706 1.77656 53.6927 2.08405 56.6775 2.69901C59.5937 3.27981 62.5099 4.20225 65.2546 5.36385C67.965 6.49129 70.5724 7.9262 73.0083 9.56611C75.4442 11.206 77.7086 13.0509 79.7671 15.1349C81.8256 17.1848 83.7125 19.4739 85.3593 21.8654C87.0061 24.2911 88.4128 26.8876 89.5793 29.5866C90.7458 32.3198 91.6378 35.1896 92.2553 38.1278C92.8729 41.1343 93.1817 44.2091 93.1817 47.2839C93.1817 50.3587 92.8729 53.4677 92.2553 56.44C91.6721 59.344 90.7458 62.2139 89.5793 64.9812C88.4471 67.6802 87.0061 70.2767 85.3593 72.7024C83.7125 75.1281 81.8599 77.383 79.7671 79.4329C77.7429 81.4827 75.4442 83.3618 73.0426 84.9675Z" fill="white"/>
<path d="M10.9101 45.0974C10.9444 45.1999 10.9444 45.3024 10.8758 45.3707L5.72949 52.5453C5.69518 52.6136 5.59226 52.6478 5.52364 52.6478C5.48933 52.6478 5.45502 52.6478 5.38641 52.6136C5.28348 52.5453 5.21486 52.4086 5.28348 52.3062L7.20475 47.3523H5.52364C5.42071 47.3523 5.3521 47.3181 5.31779 47.2498C5.28348 47.1814 5.24917 47.079 5.28348 47.0106L7.34199 42.1251C7.37629 42.0226 7.47922 41.9543 7.58214 41.9543H9.88081C9.98373 41.9543 10.0524 41.9884 10.0867 42.0909C10.121 42.1592 10.1553 42.2617 10.0867 42.3301L8.74863 44.9949H10.6699C10.7728 44.9607 10.8758 44.9949 10.9101 45.0974ZM87.9325 47.2839C87.9325 46.6348 87.4178 46.0882 86.7317 46.0882C86.0798 46.0882 85.5309 46.6006 85.5309 47.2839C85.5309 47.9331 86.0455 48.4797 86.7317 48.4797C87.3835 48.4455 87.9325 47.9331 87.9325 47.2839ZM90.8487 48.0014C90.7801 48.4114 90.6428 48.7872 90.4713 49.163L89.5107 49.2313C89.3734 49.4022 89.2362 49.573 89.0647 49.7438L89.1676 50.7004C88.996 50.8029 88.8245 50.9396 88.6529 51.0079C88.4814 51.1104 88.2756 51.1787 88.0697 51.247L87.3149 50.6321C87.1091 50.6662 86.9375 50.7004 86.7317 50.7004H86.6974L86.0798 51.452C85.6681 51.3837 85.2907 51.2812 84.9133 51.1104L84.8447 50.1196C84.6732 49.9829 84.5016 49.8463 84.3301 49.7096L83.3351 49.8121C83.1979 49.6413 83.095 49.4363 82.9921 49.2313C82.9234 49.0947 82.8548 48.9238 82.7862 48.753L83.4038 48.0014C83.3351 47.7622 83.3351 47.5231 83.3351 47.2498C83.3351 47.2498 83.3351 47.2498 83.3351 47.2156L82.5804 46.5665C82.649 46.1907 82.7519 45.849 82.9234 45.5074L83.8841 45.439C84.0556 45.1999 84.2272 44.9607 84.433 44.7558L84.3301 43.7991C84.4673 43.6966 84.6389 43.5942 84.8104 43.5258C84.9819 43.4575 85.1535 43.355 85.325 43.3208L86.0112 43.9358C86.2514 43.8675 86.4915 43.8675 86.766 43.8675C86.8346 43.8675 86.9032 43.8675 86.9375 43.8675L87.5208 43.1842C87.8982 43.2525 88.2412 43.3892 88.5843 43.5258L88.6529 44.4141C88.8931 44.5849 89.1333 44.7899 89.3391 44.9949L90.2311 44.9266C90.3341 45.0632 90.4027 45.1999 90.5056 45.3707C90.6085 45.5757 90.7115 45.7807 90.7801 45.9857L90.1968 46.669C90.2311 46.874 90.2654 47.0448 90.2654 47.2498C90.2654 47.3181 90.2654 47.3864 90.2654 47.4206L90.8487 48.0014ZM87.6923 49.1972C88.7559 48.6505 89.2019 47.3181 88.6529 46.259C88.104 45.1999 86.766 44.7558 85.7024 45.3024C84.6389 45.849 84.1928 47.1814 84.7418 48.2406C85.2907 49.3338 86.6288 49.778 87.6923 49.1972ZM47.1741 4.50977C49.3698 4.50977 51.0166 6.08134 51.0509 8.16539C51.0509 9.19033 50.6735 10.1469 49.9187 10.8302C49.1983 11.5135 48.2376 11.8893 47.1741 11.8893H47.1398C44.944 11.8893 43.2972 10.3178 43.2629 8.23372C43.2629 7.20878 43.6403 6.25216 44.3951 5.56887C45.1156 4.88558 46.0762 4.50977 47.1398 4.50977H47.1741ZM48.9581 8.16539C48.9581 6.93546 48.2376 6.14967 47.1741 6.14967H47.1398C46.0419 6.14967 45.3557 6.96962 45.39 8.19955C45.39 9.42948 46.1105 10.2494 47.1741 10.2494H47.2084C48.2719 10.2494 48.9581 9.42948 48.9581 8.16539ZM88.5843 33.8572C89.3048 35.9413 88.3099 38.0253 86.32 38.7086C85.9083 38.8453 85.5309 38.9136 85.1192 38.9136C83.5067 38.9136 82.1 37.8545 81.5511 36.2146C81.208 35.2238 81.2423 34.1989 81.654 33.3106C82.0657 32.3881 82.8548 31.7048 83.8155 31.3974C84.2272 31.2607 84.6046 31.1924 85.0163 31.1924C86.6288 31.1582 88.0354 32.2173 88.5843 33.8572ZM86.9718 35.668C87.1777 35.2921 87.1777 34.848 87.0405 34.3697C86.8003 33.6181 86.1827 33.1739 85.3593 33.1739C85.0849 33.1739 84.8104 33.2081 84.5016 33.3106C83.3008 33.7206 82.7519 34.643 83.095 35.6338C83.3351 36.3854 83.9527 36.7954 84.7761 36.7954C85.0506 36.7954 85.325 36.7612 85.6338 36.6587C86.2514 36.4879 86.7317 36.1463 86.9718 35.668ZM60.5887 13.0168L61.0347 13.1193L60.7945 14.0417L57.8097 13.2559L58.1871 11.821L58.9075 12.026L58.8046 11.2744L55.957 10.5227L55.4767 11.1035L56.1629 11.2744L55.7855 12.7093L52.835 11.9235L53.0751 11.0011L53.5211 11.1035L53.6584 10.5911L53.8642 10.6594L56.9177 7.03795L56.7461 7.00379L56.8834 6.49132L56.4373 6.38882L56.6775 5.50054L59.628 6.28633L60.5543 12.4701L60.7259 12.5043L60.5887 13.0168ZM58.3929 7.55042L56.952 9.36115L58.6331 9.80529L58.3929 7.55042ZM70.641 12.7776L70.9155 12.2993L71.3272 12.5043L71.7732 11.6843L69.0285 10.2153L68.3424 11.5135L69.0628 11.8893L67.7591 14.315L66.4897 8.84868V8.81451L64.74 7.8579L64.294 8.67786L64.7057 8.88284L64.4312 9.36115L64.74 9.53197L62.7158 13.2901L62.407 13.1193L62.2355 13.4267L62.1668 13.5634L61.8581 13.3926L61.4121 14.2125L64.1567 15.6816L64.8429 14.4175L64.1567 14.0417L65.5291 11.5135L66.8671 17.0824V17.1165L67.7934 17.629L70.5038 12.5726L70.641 12.7776ZM76.1304 20.0205C75.2727 20.943 74.3463 21.4554 73.3514 21.4554C72.5623 21.4554 71.7732 21.1138 70.9841 20.4647L68.3081 18.1756L68.9599 17.424L69.303 17.7315L69.6461 17.3215L69.9205 17.5607L72.7338 14.315L72.4594 14.0759L72.8025 13.6659L72.4594 13.3926L73.0769 12.6751L75.753 14.9642C76.6107 15.7158 77.091 16.5699 77.1596 17.4582C77.1939 18.3465 76.8508 19.2347 76.1304 20.0205ZM74.9296 18.9614C75.3413 18.5173 75.5471 17.9706 75.5128 17.4582C75.4785 16.9457 75.2383 16.5016 74.7923 16.0916L73.9689 15.3741L71.1556 18.6198L71.9791 19.3372C72.3564 19.6789 72.7681 19.8497 73.2142 19.8497C73.9689 19.8497 74.6208 19.3031 74.9296 18.9614ZM76.2676 24.4619L76.6793 24.1203L76.4391 23.847L79.6641 21.0455L79.9043 21.3188L80.316 20.943L80.6248 21.2846L81.3453 20.6697L79.2524 18.2781L78.532 18.8931L78.8064 19.2006L78.3947 19.5764L78.6349 19.8497L75.4099 22.6512L75.1697 22.3779L74.758 22.7195L74.4493 22.3779L73.7288 22.9929L75.8559 25.4185L76.5764 24.8036L76.2676 24.4619ZM85.325 29.5525L85.8054 29.2792L86.0455 29.655L86.8346 29.1767L85.2221 26.5118L83.9527 27.2634L84.3644 27.9467L81.9628 29.3475L83.7125 24.0178L82.6833 22.3096L81.8942 22.7879L82.1343 23.1637L81.654 23.437L81.8256 23.7445L78.1203 25.931L77.9487 25.6235L77.5027 25.8969L77.3312 25.5894L76.5078 26.0677L78.086 28.7325L79.3211 27.9809L78.9094 27.2976L81.3796 25.8285L79.6298 31.329L80.1788 32.2515L85.1192 29.3133L85.325 29.5525ZM41.0672 7.48209L42.4395 7.20878L41.9592 4.81725L35.6464 6.11551L36.1268 8.47287L37.4991 8.19955L37.3619 7.20878L38.3225 7.00379L39.2145 11.2402L38.8028 11.3085L38.9057 11.821L38.4254 11.9577L38.6313 12.8801L41.8563 12.231L41.6504 11.3085L41.2044 11.411L41.1015 10.8986L40.6898 10.9669L39.7978 6.73047L40.7241 6.52548L41.0672 7.48209ZM34.6858 7.92623L34.4799 7.41376L34.8916 7.24294L34.5143 6.38882L31.6323 7.58459L32.2156 8.95117L32.9704 8.64369L34.0339 11.206L28.9563 8.74619L27.1036 9.49781L27.4467 10.3519L27.8584 10.1811L28.0643 10.6936L28.373 10.5569L30.0199 14.52L29.7111 14.6567L29.8483 14.9642L29.9169 15.1008L29.5738 15.2375L29.9512 16.0916L32.7988 14.8958L32.2499 13.5634L31.5637 13.8709L30.4659 11.2402L35.6807 13.7342L36.6757 13.3243L34.4456 8.02873C34.4113 8.02873 34.6858 7.92623 34.6858 7.92623ZM26.6919 15.3058L27.2409 16.1941L25.2853 17.5607L24.4962 16.3991L26.2802 15.1691L25.4568 13.9734L23.6728 15.2033L22.8837 14.0759L24.7364 12.7776L25.3882 13.5976L26.5204 12.8118L25.0794 10.7619L20.139 14.2125L20.688 14.9642L21.0654 14.6908L21.3741 15.135L21.6143 14.9642L24.0845 18.4831L23.8443 18.6539L24.1531 19.0981L23.6728 19.3714L24.2217 20.1572L29.3337 16.5699L27.8584 14.4859L26.6919 15.3058ZM22.7122 20.123L22.3348 19.7814L22.1289 20.0205L18.8696 17.2532L19.0755 17.014L18.6638 16.6382L18.9725 16.2966L18.2864 15.6816L16.6053 17.629L17.3257 21.0455L13.8263 20.8063L12.0765 22.822L12.7627 23.437L13.0715 23.0953L13.4832 23.4712L13.7234 23.1978L16.9827 25.9993L16.7425 26.2727L17.1199 26.6143L16.8111 26.956L17.5316 27.5709L19.5558 25.2136L18.4579 24.2569L18.0119 24.7694L15.4045 22.5145L18.801 22.617L19.0412 22.3437L18.5265 19.0298L21.0997 21.2505L20.585 21.7971L21.6829 22.7537L23.7071 20.4305L22.9866 19.8155L22.7122 20.123ZM14.3752 28.0492L15.2672 28.5959L14.1351 30.6799L12.8656 29.9966L13.8949 28.0834L12.6255 27.4001L11.5962 29.3133L10.3954 28.6642L11.4933 26.6826L12.4539 27.1268L13.1058 25.931L10.9101 24.7353L8.02815 30.0308L8.85156 30.4749L9.05741 30.0991L9.53772 30.3383L9.67496 30.0649L13.4489 32.1148L13.3117 32.3881L13.792 32.6273L13.5518 33.0714L14.3752 33.5156L17.36 28.0492L15.0957 26.8193L14.3752 28.0492ZM13.6547 33.5156L12.0422 33.9597L12.1109 34.0964C12.3167 34.6088 12.2138 35.4288 12.0079 35.8388C11.5962 36.7271 11.013 37.2054 10.2582 37.2054C9.91512 37.2054 9.57203 37.1029 9.19464 36.9662C8.6114 36.7271 8.16539 36.2829 7.95954 35.7704C7.75369 35.258 7.78799 34.6772 8.06246 34.0964C8.16539 33.8572 8.26831 33.6522 8.43985 33.4814L8.92017 33.6522L9.16033 33.1056L9.64065 33.3106L10.0524 32.4223L9.94943 32.3198C9.77788 32.2515 9.60634 32.149 9.40049 32.0465L9.29757 32.0123C8.98879 31.8415 8.6457 31.7048 8.33693 31.5682L8.26831 31.534L8.234 31.5682C7.51353 32.0123 6.93028 32.6273 6.5872 33.4131C6.10688 34.4722 6.03827 35.5313 6.41566 36.4537C6.79305 37.3762 7.54784 38.1278 8.47416 38.5378C9.09172 38.8111 9.67496 38.9478 10.2239 38.9478C11.5962 38.9478 12.7284 38.1278 13.4489 36.6587C13.4832 36.6246 13.4832 36.5904 13.5175 36.5221C13.9635 35.5313 14.0321 34.6088 13.689 33.6181L13.6547 33.5156Z" fill="white"/>
<path d="M71.2586 49.6413C70.2979 49.6413 69.749 50.9737 68.4796 51.4179C67.2102 51.862 65.0488 52.7161 64.4312 52.9894C63.7793 53.2628 61.8581 54.4243 60.4857 55.0735C59.1134 55.7226 58.9076 56.8159 58.0841 58.1141C57.2607 59.3782 56.0256 60.4715 55.0993 61.2231C54.173 61.9747 52.732 63.1363 50.4334 65.0496C49.6443 65.7329 48.5121 66.3137 48.0661 66.587C47.6201 66.8603 45.1156 67.9536 44.2235 68.6027C43.4001 69.1835 41.5475 69.3201 40.5525 69.2518C39.7634 68.3977 37.4648 66.0745 37.1217 65.4937C36.7443 64.8446 33.8624 62.453 32.2499 62.453C31.2893 62.453 29.7111 63.5805 29.1621 64.0588C28.5789 64.5371 26.8978 65.1179 25.8342 65.4595C25.5941 65.5279 25.3882 65.6987 25.1824 65.9037C26.6576 67.6119 28.3387 69.1152 30.1571 70.4476C31.152 67.5094 32.0441 64.1613 32.6616 64.1613C34.8917 64.1613 36.5728 68.7393 37.156 69.286C37.7736 69.8326 38.5283 70.1401 39.1459 70.8576C39.7634 71.575 39.7635 72.3608 40.4153 73.2149C40.4839 73.3174 40.5869 73.4541 40.7241 73.5907C40.9299 73.3516 41.2044 73.1807 41.4789 73.0099C41.9249 71.985 42.9541 71.2675 44.0863 71.2675C44.6352 71.2675 45.1842 71.4384 45.6645 71.7458C46.7967 71.78 47.6544 72.19 48.3062 72.6341C48.6493 72.19 48.9924 71.7458 49.2326 71.4725C50.056 70.5501 51.394 70.0034 52.8006 69.6276C54.173 69.2518 53.727 67.9536 54.0014 66.8603C54.2759 65.767 55.0307 65.1521 56.7461 63.7171C58.3929 62.3164 57.7411 62.658 60.6916 60.984C63.6421 59.3441 62.9903 60.4032 64.0195 62.1456C65.0145 63.888 65.1517 64.1954 65.4948 64.8446C65.7692 65.357 66.078 62.8972 65.8035 61.8722C65.5291 60.8815 65.8378 60.779 66.3182 59.5832C66.7642 58.3874 67.073 58.8658 67.0043 56.5767C66.9014 54.2877 67.3474 55.5176 68.7198 54.0485C70.0921 52.5795 70.2636 53.0919 71.636 52.1012C72.3908 51.5545 73.9003 53.5019 75.4785 55.381C75.753 54.561 75.9588 53.7069 76.1304 52.8186C74.312 51.4179 72.2192 49.6413 71.2586 49.6413Z" fill="white"/>
<path d="M76.6794 46.2932C76.302 45.8832 76.1305 45.4732 75.6501 44.7216C74.9297 43.6283 75.1698 43.7991 74.0376 42.74C72.9398 41.6809 71.6704 40.7585 70.9842 39.8019C70.2637 38.8453 70.3323 38.2303 69.3031 37.2395C68.2738 36.2146 68.1366 35.4288 67.3818 34.5747C66.627 33.7206 66.4212 32.9689 66.2153 32.3198C66.0438 31.6707 65.6321 31.2265 65.1518 29.9283C64.6714 28.6642 62.7845 28.3225 62.1326 27.3659C61.4808 26.4093 61.8238 26.1702 61.2406 25.0769C60.6574 23.9836 59.0106 23.9836 58.2558 23.437C57.501 22.8904 57.1579 23.847 56.6433 24.2228C56.163 24.6328 51.943 29.245 51.5313 29.8258C51.1196 30.4066 50.8108 30.9191 50.0561 31.9098C49.3013 32.8664 48.1348 33.4131 45.9734 34.9505C43.8119 36.4879 44.5667 36.3512 44.0521 37.1712C43.5718 37.957 42.6454 38.0595 41.7534 39.0161C40.8614 39.9727 40.9643 40.861 39.9351 42.3642C38.9058 43.8675 36.2984 46.3957 36.2984 46.3957C36.2984 46.3957 35.7151 46.0882 35.5779 45.7807C35.4407 45.4732 34.5487 44.7558 33.6223 43.9358C32.696 43.0817 33.2106 43.4233 31.4609 42.2617C29.6769 41.1001 28.4075 37.3079 27.9271 36.6587C27.4468 35.9754 26.8293 35.053 26.3146 34.8822C25.7657 34.7113 24.9766 36.0779 24.4963 36.4879C24.016 36.8979 23.8787 37.2054 23.6043 38.0595C23.3298 38.9136 22.9524 38.9819 21.8889 40.0069C20.8253 41.0318 19.1442 42.5692 18.5952 43.15C18.4237 43.3208 18.2179 43.56 17.9434 43.8333C17.8405 44.7899 17.8062 45.7465 17.8062 46.7373C17.8062 53.0236 19.8303 58.8658 23.2269 63.6488C24.5306 61.9064 26.246 59.8224 26.8636 58.9683C27.8585 57.6017 26.4519 61.3256 27.2753 60.8131C27.8928 60.4032 28.8535 58.6266 30.3287 57.055C31.804 55.5176 31.7354 56.1326 33.7596 54.766C35.7838 53.3994 36.2984 51.657 37.9109 51.657C39.3861 51.657 40.038 52.6136 40.7928 53.0236C41.7877 53.5361 42.9885 53.3994 43.8119 53.9802C44.6353 54.5268 46.488 55.2443 47.0712 55.4493C47.38 55.5518 46.5909 54.356 46.0763 53.9119C45.596 53.4677 44.9441 52.7161 45.0813 52.2378C45.9047 52.2378 46.8654 52.6478 48.6494 52.3061C50.9481 51.862 51.2569 51.5545 52.9037 51.8278C54.5505 52.1011 55.8542 53.0919 56.6776 53.7411C57.501 54.3902 56.1286 52.272 55.4768 51.5545C54.8249 50.8371 54.5505 50.0171 54.0015 49.2655C53.4526 48.548 54.0015 47.6939 53.5212 46.8056C52.9037 45.6099 51.7029 43.97 51.3255 43.2183C50.9481 42.5009 51.497 41.2026 51.4284 40.1094C51.3255 39.0161 52.0116 37.752 53.384 36.1804C54.7563 34.643 54.276 34.8138 54.8249 33.2423C55.3739 31.7048 55.5454 32.6615 57.1922 30.8507C58.839 29.0058 58.7018 27.9467 59.2507 27.2293C59.7996 26.5118 60.4515 28.3225 61.0004 29.6891C61.5494 31.0557 62.0983 31.2265 63.0246 32.149C63.951 33.0714 64.5685 33.6181 64.6714 34.6088C64.7744 35.5996 65.2204 35.7021 66.3182 36.8979C67.4161 38.0936 67.9307 38.7086 69.1315 40.3485C70.3323 41.9884 71.3616 42.4667 71.9105 43.1158C72.4595 43.765 73.5916 46.669 74.3464 47.4889C74.7238 47.8989 75.8217 49.1972 76.4049 50.2904C76.5422 49.1288 76.6108 47.9672 76.6108 46.7715C76.6794 46.5665 76.6794 46.4298 76.6794 46.2932ZM28.3388 52.1353C26.4176 53.7752 26.5205 54.0485 25.4912 55.5176C25.1825 55.9276 23.9474 56.1667 23.1583 56.3376C23.1583 56.3376 23.4327 54.356 23.913 53.9119C25.4569 52.477 23.6043 51.8278 23.3298 51.3837C23.0553 50.9396 22.3349 50.4271 22.6093 49.7096C22.8838 48.8897 23.4327 47.7622 23.913 46.054C24.3934 44.3799 23.913 43.3208 24.9423 41.8859C26.2117 40.1094 26.3146 35.7704 26.7263 37.342C27.0351 38.4353 26.8979 40.1777 27.3439 41.4759C28.3731 44.2433 31.5981 46.9764 32.5245 48.138C33.0734 48.8555 29.471 51.1787 28.3388 52.1353Z" fill="white"/>
</svg>
