<svg width="102" height="76" viewBox="0 0 102 76" fill="none" xmlns="http://www.w3.org/2000/svg">
<path d="M29.5723 76H72.428L51.0172 54.5255L29.5723 76ZM45.5194 67.9856H45.2803V67.8143L45.1437 67.6773H44.3242L44.1535 67.8486V68.8761L44.3242 69.0473H45.1437L45.2803 68.9103V68.7048H45.5194V68.9788L45.2462 69.2528H44.1876L43.8803 68.9446V67.7801L44.1876 67.4718H45.2462L45.5194 67.7458V67.9856ZM47.3975 67.6431H46.2365V68.2596H47.3292V68.4308H46.2365V69.0131H47.3975V69.2186H45.9974V67.4718H47.3975V67.6431ZM50.0952 69.2186H49.8562V67.6431L49.1049 69.2186H48.8317L48.0805 67.6431V69.2186H47.8756V67.4718H48.2171L48.9683 69.0473L49.7196 67.4718H50.0611V69.2186H50.0952ZM56.4126 67.7458L56.7199 67.4376H57.8126L58.12 67.7458V68.9103L57.8126 69.2186H56.7199L56.4126 68.9103V67.7458ZM54.4661 67.4718H56.1052V67.6431H55.3881V69.2186H55.1491V67.6431H54.432V67.4718H54.4661ZM52.4856 67.4718H52.7929L53.9198 69.0131V67.4718H54.1247V69.2186H53.8173L52.7246 67.7116V69.2186H52.5197V67.4718H52.4856ZM52.0075 67.6431H50.8465V68.2596H51.9392V68.4308H50.8465V69.0131H52.0075V69.2186H50.6074V67.4718H52.0075V67.6431Z" fill="white"/>
<path d="M57.676 69.0131L57.8467 68.8418V67.8143L57.676 67.6431H56.8223L56.6174 67.8143V68.8418L56.8223 69.0131H57.676Z" fill="white"/>
<path d="M23.8011 27.2628L0 51.1348L23.8011 75.0068L47.6023 51.1348L23.8011 27.2628ZM26.1915 57.5737V54.3542H21.4108V57.5737H16.6301V47.3331L19.1912 44.7643H23.4938V47.9838H21.4108V51.169H26.1915V47.9496H24.1085V44.7301H28.4111L30.9722 47.2988V57.5395H26.1915V57.5737Z" fill="white"/>
<path d="M78.1988 27.2628L54.3977 51.1348L78.1988 75.0068L102 51.1348L78.1988 27.2628ZM77.8574 57.5395H73.5547L70.9936 54.9707V44.7301H75.7743V54.3542H77.8574V57.5395ZM82.8088 57.5395H78.5062V54.32H80.5892V44.6958H85.3699V54.9365L82.8088 57.5395Z" fill="white"/>
<path d="M74.8183 23.872L50.983 0L27.1819 23.872L50.983 47.744L74.8183 23.872ZM48.217 30.3452H43.4363V17.5358H48.217V30.3452ZM48.8658 23.9405H53.6466V20.7553H48.8658V17.5701H55.832L58.4614 20.2073V24.557L55.832 27.1942H48.8658V23.9405Z" fill="white"/>
</svg>
