<?xml version="1.0" encoding="UTF-8" standalone="no"?><!DOCTYPE svg PUBLIC "-//W3C//DTD SVG 1.1//EN" "http://www.w3.org/Graphics/SVG/1.1/DTD/svg11.dtd"><svg width="100%" height="100%" viewBox="0 0 1200 288" version="1.1" xmlns="http://www.w3.org/2000/svg" xmlns:xlink="http://www.w3.org/1999/xlink" xml:space="preserve" xmlns:serif="http://www.serif.com/" style="fill-rule:evenodd;clip-rule:evenodd;stroke-linejoin:round;stroke-miterlimit:2;"><g id="logo-rojo"><path d="M121.061,217.635l51.114,-0c-4.931,42.371 -39.009,70.169 -85.415,70.169l-0.672,-0c-49.097,-0 -86.088,-32.507 -86.088,-81.155c-0,-48.423 35.872,-81.155 86.088,-81.155l0.672,-0c46.406,-0 80.484,27.8 85.415,70.171l-51.114,-0c-4.483,-13.676 -17.263,-24.213 -34.301,-24.213l-0.672,-0c-21.298,-0 -35.869,14.797 -35.869,35.197c-0,20.625 14.571,35.199 35.869,35.199l0.672,-0c17.038,-0 29.818,-10.314 34.301,-24.213" style="fill:#e52521;fill-rule:nonzero;"/><path d="M276.859,216.514l-11.658,-45.062l-13.9,-0l-11.658,45.062l37.216,-0Zm11.433,43.716l-59.858,-0l-6.501,24.885l-49.769,-0l41.473,-156.932l89.675,-0l41.476,156.932l-49.995,-0l-6.501,-24.885Z" style="fill:#e52521;fill-rule:nonzero;"/><path d="M515.829,128.183l0,156.931l-48.423,0l-60.756,-82.5l0,82.5l-48.423,0l0,-156.931l48.423,0l60.756,80.483l0,-80.483l48.423,0Z" style="fill:#e52521;fill-rule:nonzero;"/><path d="M692.027,171.452l-52.236,0l0,113.662l-49.321,0l0,-113.662l-52.234,0l0,-43.269l153.791,0l0,43.269Z" style="fill:#e52521;fill-rule:nonzero;"/><path d="M763.756,170.78l-0,15.692l63.22,0l-0,40.801l-63.22,0l-0,15.021l78.466,0l-0,42.82l-127.786,0l-0,-156.931l127.786,0l-0,42.597l-78.466,0Z" style="fill:#e52521;fill-rule:nonzero;"/><path d="M950.045,205.977c9.415,-0 17.263,-7.622 17.263,-17.264c-0,-9.638 -7.848,-17.26 -17.263,-17.26l-35.871,-0l-0,34.524l35.871,-0Zm-85.415,-77.793l85.415,-0c40.129,-0 66.584,27.127 66.584,60.529c-0,20.403 -9.865,38.561 -26.904,49.547l30.938,46.855l-57.168,-0l-21.298,-35.868l-28.023,-0l-0,35.868l-49.544,-0l-0,-156.931Z" style="fill:#e52521;fill-rule:nonzero;"/><path d="M1132.07,216.514l-11.656,-45.062l-13.902,-0l-11.656,45.062l37.214,-0Zm11.435,43.716l-59.858,-0l-6.503,24.885l-49.767,-0l41.473,-156.932l89.675,-0l41.474,156.932l-49.993,-0l-6.501,-24.885Z" style="fill:#e52521;fill-rule:nonzero;"/><path d="M577.64,45.091l-11.628,0l-20.851,-31.418l-0,31.418l-8.989,0l-0,-43.561l11.614,0l20.863,31.441l-0,-31.441l8.991,0l-0,43.561Z" style="fill:#e52521;fill-rule:nonzero;"/><path d="M511.414,46.291c-6.2,-0 -11.228,-1.469 -14.95,-4.364c-3.82,-2.972 -5.754,-6.865 -5.754,-11.571l0,-28.825l8.988,-0l0,27.226c0,1.939 0,7.841 11.716,7.841c11.662,-0 11.662,-5.902 11.662,-7.841l0,-27.226l8.991,-0l0,28.825c0,4.706 -1.934,8.599 -5.756,11.571c-3.721,2.895 -8.735,4.364 -14.897,4.364" style="fill:#e52521;fill-rule:nonzero;"/><path d="M610.707,26.578l-12.175,-0l6.112,-13.881l6.063,13.881Zm-1.24,-25.047l-9.701,-0l-19.325,43.561l9.889,-0l3.85,-8.816l20.874,-0l3.849,8.816l9.89,-0l-19.326,-43.561Z" style="fill:#e52521;fill-rule:nonzero;"/><path d="M650.46,46.16c-6.979,-0 -12.709,-2.176 -17.046,-6.467c-4.344,-4.295 -6.548,-9.863 -6.548,-16.547c0,-6.973 2.504,-12.744 7.436,-17.158c4.276,-3.845 9.583,-5.792 15.778,-5.792c8.698,-0 15.791,3.955 21.086,11.763l0.856,1.252l-8.218,3.487l-0.581,-0.712c-3.38,-4.1 -7.533,-6.097 -12.705,-6.097c-4.407,-0 -7.946,1.246 -10.526,3.695c-2.595,2.467 -3.861,5.583 -3.861,9.528c0,4.078 1.266,7.248 3.857,9.69c2.58,2.431 6.159,3.664 10.634,3.664c5.237,-0 9.391,-2.032 12.692,-6.214l0.698,-0.88l7.628,5.002l-0.763,1.057c-5.156,7.121 -12.024,10.729 -20.417,10.729" style="fill:#e52521;fill-rule:nonzero;"/><path d="M683.854,35.398l-0,-8.075l19.639,-0l-0,-9.694l-19.639,-0l-0,-6.402l28.23,-0l-0,-9.696l-37.222,-0l-0,43.56l38.474,-0l-0,-9.693l-29.482,-0Z" style="fill:#e52521;fill-rule:nonzero;"/><path d="M766.475,45.091l-8.985,0l-0.145,-30.626l-15.61,25.983l-15.68,-26.445l-0,31.088l-8.992,0l-0,-43.561l11.733,0l12.945,22.041l12.978,-22.041l11.756,0l-0,43.561Z" style="fill:#e52521;fill-rule:nonzero;"/><path d="M480.867,12.348l-15.87,-0l0,10.877l-15.692,-0l0,10.788l-15.78,-0l0,11.055l47.342,-0l0,-32.72Z" style="fill:#e52521;fill-rule:nonzero;"/><path d="M480.868,12.344l0,-10.783l-47.343,0l0,32.455l15.493,-23.985l8.084,8.737l13.1,-17.118l10.666,10.694Z" style="fill:#e52521;fill-rule:nonzero;"/></g></svg>