<svg width="41" height="38" viewBox="0 0 41 38" fill="none" xmlns="http://www.w3.org/2000/svg">
<path fill-rule="evenodd" clip-rule="evenodd" d="M36.0769 25.536C34.3245 24.5625 32.1827 23.3942 30.2356 24.1731C28.6779 24.7572 27.7044 27.2884 26.7308 28.4567C26.1467 29.0408 25.5625 29.2356 24.7837 28.8461C18.9423 26.5096 14.6587 22.6154 11.3486 17.3581C10.7645 16.5793 10.9592 15.8005 11.5433 15.2163C12.5169 14.048 13.6851 12.8798 13.8798 11.3221C14.0745 9.7644 13.4904 8.01199 12.7116 6.64901C11.9327 4.89661 10.9592 2.36536 9.20676 1.3918C7.64907 0.41824 5.50724 1.00237 4.14426 2.17064C1.61301 4.11776 0.444742 7.23315 0.639453 10.3485C0.639453 11.3221 0.834164 12.1009 1.02888 12.8798C1.61301 15.0216 2.39186 16.774 3.56013 18.7211C4.33897 20.0841 5.31253 21.4471 6.09137 22.6154C9.20676 26.7043 12.9063 30.4038 17.3846 33.1298C19.5265 34.4928 22.0577 35.661 24.3943 36.4399C27.1202 37.4134 29.6515 38.387 32.5721 37.8029C35.6875 37.2187 38.8029 35.2716 39.9712 32.1562C40.3606 31.1827 40.5553 30.2091 40.3606 29.2355C40.3606 27.6779 37.6346 26.5096 36.0769 25.536Z" fill="white"/>
</svg>
