<svg width="81" height="81" viewBox="0 0 81 81" fill="none" xmlns="http://www.w3.org/2000/svg">
<path fill-rule="evenodd" clip-rule="evenodd" d="M40.5 0C18.1082 0 0 18.1082 0 40.5C0 48.2885 2.14183 55.8822 6.42548 62.5024L0.194712 76.1322C-0.194712 77.3005 0 78.6635 0.778846 79.8317C1.55769 80.6106 2.53125 81 3.50481 81C3.89423 81 4.08894 81 4.47837 80.8053L21.4183 76.1322C27.2596 79.2476 33.8798 81 40.5 81C62.8918 81 81 62.8918 81 40.5C81 18.1082 62.8918 0 40.5 0ZM40.5 73.9904C34.6587 73.9904 28.8173 72.4327 23.7548 69.512C23.1707 69.1226 22.5865 69.1226 22.0024 69.1226C21.613 69.1226 21.4183 69.1226 21.0288 69.3173L9.93029 72.0433L13.8245 63.476C14.4087 62.3077 14.2139 60.9447 13.4351 59.9712C9.34615 54.3245 7.20433 47.5096 7.20433 40.5C7.20433 22.0024 22.1971 7.00962 40.6947 7.00962C59.1923 7.00962 74.1851 22.0024 74.1851 40.5C73.9904 58.9976 58.9976 73.9904 40.5 73.9904Z" fill="white"/>
</svg>
